<svg width="11" height="11" viewBox="0 0 11 11" fill="none" xmlns="http://www.w3.org/2000/svg">
<mask id="mask0_52_241" style="mask-type:luminance" maskUnits="userSpaceOnUse" x="0" y="0" width="12" height="11">
<path d="M11.0933 0.0917969H0.924683V10.7929H11.0933V0.0917969Z" fill="white"/>
</mask>
<g mask="url(#mask0_52_241)">
<path d="M1.53704 3.35254C1.14675 4.05037 0.924683 4.84952 0.924683 5.69931C0.924683 6.54911 1.14675 7.34899 1.53704 8.04682V3.35254Z" fill="#484B51"/>
<path d="M6.00893 0.768066C5.59646 0.768066 5.1962 0.817244 4.81213 0.906503V1.68253C5.19246 1.5768 5.59347 1.51877 6.00893 1.51877C8.38908 1.51877 10.3189 3.38458 10.3189 5.6866C10.3189 6.72327 9.92632 7.67142 9.27858 8.40073L9.15571 8.82612L8.8838 9.76763C10.2182 8.87899 11.094 7.38865 11.094 5.70037C11.0932 2.97567 8.817 0.768066 6.00893 0.768066Z" fill="#484B51"/>
<path d="M4.81213 8.25819H8.71183H8.79707C9.45703 7.58937 9.86352 6.68375 9.86352 5.68643C9.86352 3.62784 8.1381 1.95947 6.00918 1.95947C5.59123 1.95947 5.18947 2.02513 4.81238 2.1434V8.25819H4.81213Z" fill="#484B51"/>
<path d="M4.35111 0.0917969H1.45007L1.99788 1.19486V9.6906L1.45007 10.7929H8.10774L8.71163 8.70532H4.35111V0.0917969Z" fill="#484B51"/>
</g>
</svg>
